<svg xmlns="http://www.w3.org/2000/svg" width="42" height="42" viewBox="0 0 42 42">
  <g id="Group_18" data-name="Group 18" transform="translate(83.273 1)">
    <g id="Group_13355" data-name="Group 13355" transform="translate(-83.273 -1)">
      <rect id="Rectangle_2" data-name="Rectangle 2" width="42" height="42" rx="21" fill="#832b5d"/>
      <g id="Group_34057" data-name="Group 34057" transform="translate(9 9)">
        <g id="Group_34058" data-name="Group 34058">
          <path id="Path_19334" data-name="Path 19334" d="M24,7V9a1,1,0,0,1-2,0V7a2,2,0,0,0-2-2H17.971l1.25,1.307a1,1,0,0,1-1.442,1.386l-2.212-2.3a1.988,1.988,0,0,1,.013-2.8l2.2-2.287a1,1,0,1,1,1.442,1.386L17.964,3H20a4,4,0,0,1,4,4M6.221,16.307a1,1,0,0,0-1.442,1.387L6.029,19H4a2,2,0,0,1-2-2V15a1,1,0,0,0-2,0v2a4,4,0,0,0,4,4H6.035L4.779,22.308a1,1,0,0,0,1.442,1.386l2.2-2.288a1.99,1.99,0,0,0,.013-2.8l-2.212-2.3M12,8a4,4,0,0,1-4,4H4A4,4,0,0,1,0,8V4A4,4,0,0,1,4,0H8a4,4,0,0,1,4,4ZM9.5,3.616A.616.616,0,0,0,8.884,3H6.627V2.616A.616.616,0,0,0,6.011,2H5.99a.616.616,0,0,0-.616.616V3H3.116a.616.616,0,0,0-.616.616v.021a.616.616,0,0,0,.616.616H7.308a5.659,5.659,0,0,1-1.3,3.071,5.011,5.011,0,0,1-.692-1,.62.62,0,0,0-1.1.578,6.289,6.289,0,0,0,.83,1.22,4.592,4.592,0,0,1-1.977.635.621.621,0,0,0-.568.614v.021a.619.619,0,0,0,.679.614A5.7,5.7,0,0,0,6.011,8.984a5.687,5.687,0,0,0,2.808,1.022.618.618,0,0,0,.68-.613V9.372a.615.615,0,0,0-.555-.613A4.593,4.593,0,0,1,6.96,8.12,6.983,6.983,0,0,0,8.567,4.254h.316A.616.616,0,0,0,9.5,3.638V3.617ZM24,16v4a4,4,0,0,1-4,4H16a4,4,0,0,1-4-4V16a4,4,0,0,1,4-4h4a4,4,0,0,1,4,4m-3.2,5.144L19.441,15.2a1.5,1.5,0,0,0-.842-1.07,1.489,1.489,0,0,0-2.056,1.021L15.13,21.14a.7.7,0,0,0,1.362.321l.274-1.161h2.409l.265,1.157a.7.7,0,0,0,.682.543h0a.7.7,0,0,0,.682-.856ZM17.986,15.4a.08.08,0,0,0-.079.063L17.1,18.9h1.757l-.787-3.437a.081.081,0,0,0-.079-.063Z" fill="#fff"/>
        </g>
      </g>
    </g>
  </g>
</svg>